<svg width="13" height="11" fill="none" xmlns="http://www.w3.org/2000/svg"><g clip-path="url(#ship_svg__clip0_2179_41532)" fill="#08F"><path d="M10.078 1.97v2.873l-1.26-.422V2.626h-5.04V4.42l-1.26.422V1.97a.67.67 0 01.185-.464.617.617 0 01.446-.193h1.26v-.82c0-.13.05-.256.138-.348A.463.463 0 014.88.001h2.835c.125 0 .245.052.334.144a.503.503 0 01.138.348v.82h1.26c.167 0 .328.07.446.193a.67.67 0 01.184.464z"></path><path d="M12.6 9.68v.328c0 .13-.05.256-.139.348a.463.463 0 01-.334.145c-1.2 0-2.116-.423-2.82-1.219-.143.36-.385.669-.696.885a1.84 1.84 0 01-1.051.334H5.04a1.84 1.84 0 01-1.05-.334 1.956 1.956 0 01-.697-.885c-.704.796-1.62 1.219-2.82 1.219a.463.463 0 01-.335-.145.503.503 0 01-.138-.348V9.68c0-.13.05-.255.138-.348a.463.463 0 01.334-.144c1.213 0 2.005-.65 2.35-1.545L1.446 6.207a.683.683 0 01-.016-.91.627.627 0 01.268-.179l4.41-1.476a.605.605 0 01.386 0l4.41 1.476a.627.627 0 01.268.179.683.683 0 01-.016.91L9.777 7.643c.351.91 1.153 1.545 2.35 1.545.125 0 .246.052.334.144a.503.503 0 01.139.348z"></path></g><defs><clipPath id="ship_svg__clip0_2179_41532"><path fill="#fff" transform="translate(0 .001)" d="M0 0h12.6v10.5H0z"></path></clipPath></defs></svg>