<svg width="40" height="40" fill="none" xmlns="http://www.w3.org/2000/svg"><g clip-path="url(#cargowizardicon_svg__clip0)"><path fill-rule="evenodd" clip-rule="evenodd" d="M10.323 20.664a1.917 1.917 0 012.155-1.642l14.308 1.918c.956.128 1.652.94 1.66 1.876a1.918 1.918 0 012.1-1.38l4.37.586a1.912 1.912 0 011.643 2.151l-1.251 9.27a1.917 1.917 0 01-2.155 1.642l-4.37-.586a1.913 1.913 0 01-1.66-1.876 1.918 1.918 0 01-2.1 1.38l-14.308-1.919a1.913 1.913 0 01-1.643-2.15l1.25-9.27z" fill="url(#cargowizardicon_svg__paint0_linear)"></path><g filter="url(#cargowizardicon_svg__filter0_d)"><path fill-rule="evenodd" clip-rule="evenodd" d="M1.902 13.112a1.91 1.91 0 00-1.36 2.338l3.484 13.144a1.919 1.919 0 002.342 1.363l19.647-5.173a1.911 1.911 0 001.415-2.036 1.92 1.92 0 002.238 1.068l6.83-1.799a1.91 1.91 0 001.36-2.338L34.373 6.535a1.919 1.919 0 00-2.342-1.363l-6.83 1.798a1.911 1.911 0 00-1.415 2.036 1.92 1.92 0 00-2.238-1.067L1.902 13.112z" fill="url(#cargowizardicon_svg__paint1_linear)"></path></g><path fill-rule="evenodd" clip-rule="evenodd" d="M35.583 22.255a1.912 1.912 0 00-.676-.223l-4.37-.586a1.918 1.918 0 00-2.1 1.378 1.913 1.913 0 00-1.66-1.878l-14.308-1.918a1.917 1.917 0 00-2.155 1.642L9.16 29.22l16.85-4.437a1.911 1.911 0 001.415-2.036 1.92 1.92 0 002.238 1.067l5.92-1.559z" fill="url(#cargowizardicon_svg__paint2_linear)"></path></g><defs><linearGradient id="cargowizardicon_svg__paint0_linear" x1="23.679" y1="20.484" x2="21.964" y2="33.624" gradientUnits="userSpaceOnUse"><stop stop-color="#26A7FC"></stop><stop offset="1" stop-color="#1CC1FA"></stop></linearGradient><linearGradient id="cargowizardicon_svg__paint1_linear" x1="10.43" y1="-0.789" x2="34.625" y2="-3.743" gradientUnits="userSpaceOnUse"><stop stop-color="#93F"></stop><stop offset="0.984" stop-color="#8CE9FF"></stop></linearGradient><linearGradient id="cargowizardicon_svg__paint2_linear" x1="22.372" y1="19.011" x2="22.372" y2="29.22" gradientUnits="userSpaceOnUse"><stop stop-color="#FF5476"></stop><stop offset="1" stop-color="#FFB076"></stop></linearGradient><clipPath id="cargowizardicon_svg__clip0"><rect width="40" height="40" rx="8.436" fill="#fff"></rect></clipPath><filter id="cargowizardicon_svg__filter0_d" x="-13.883" y="-4.465" width="66.166" height="53.632" filterUnits="userSpaceOnUse" color-interpolation-filters="sRGB"><feFlood flood-opacity="0" result="BackgroundImageFix"></feFlood><feColorMatrix in="SourceAlpha" values="0 0 0 0 0 0 0 0 0 0 0 0 0 0 0 0 0 0 127 0" result="hardAlpha"></feColorMatrix><feOffset dy="4.787"></feOffset><feGaussianBlur stdDeviation="7.18"></feGaussianBlur><feColorMatrix values="0 0 0 0 0.228125 0 0 0 0 0.438882 0 0 0 0 0.75 0 0 0 0.15 0"></feColorMatrix><feBlend in2="BackgroundImageFix" result="effect1_dropShadow"></feBlend><feBlend in="SourceGraphic" in2="effect1_dropShadow" result="shape"></feBlend></filter></defs></svg>