<svg width="12" height="10" fill="none" xmlns="http://www.w3.org/2000/svg"><path d="M11.658 8.107L9.164 1.123a.953.953 0 00-.896-.632H6.635V2.08a.317.317 0 01-.318.317h-.635a.317.317 0 01-.317-.317V.49H3.734a.952.952 0 00-.897.632L.343 8.107a.95.95 0 00.896 1.272h4.126V7.792c0-.175.143-.317.317-.317h.635c.176 0 .318.142.318.317v1.587h4.109a.955.955 0 00.914-1.272zm-5.023-2.22a.317.317 0 01-.318.318h-.635a.318.318 0 01-.317-.318V3.982c0-.174.143-.317.317-.317h.635c.175 0 .318.143.318.317v1.905z" fill="#02BCB1"></path></svg>